<svg width="58" height="58" viewBox="0 0 58 58" fill="none" xmlns="http://www.w3.org/2000/svg">
<rect width="58" height="58" rx="16" fill="#F0F0F0"/>
<path d="M8.312 37.888H10.552V19.776H8.312V17.664H19.864C21.1653 17.664 22.2853 17.8027 23.224 18.08C24.1627 18.336 24.9307 18.6987 25.528 19.168C26.1467 19.6373 26.5947 20.192 26.872 20.832C27.1707 21.472 27.32 22.1653 27.32 22.912C27.32 23.68 27.1813 24.3627 26.904 24.96C26.648 25.5573 26.296 26.0693 25.848 26.496C25.4 26.9013 24.8773 27.2427 24.28 27.52C23.704 27.7973 23.1067 28 22.488 28.128V28.288C23.128 28.3733 23.7893 28.544 24.472 28.8C25.1547 29.056 25.7733 29.408 26.328 29.856C26.8827 30.304 27.3307 30.8587 27.672 31.52C28.0347 32.16 28.216 32.9173 28.216 33.792C28.216 35.776 27.576 37.312 26.296 38.4C25.016 39.4667 23.0853 40 20.504 40H8.312V37.888ZM15.736 37.728H19.288C20.44 37.728 21.3253 37.44 21.944 36.864C22.584 36.288 22.904 35.4773 22.904 34.432V32.928C22.904 31.8827 22.584 31.072 21.944 30.496C21.3253 29.92 20.44 29.632 19.288 29.632H15.736V37.728ZM15.736 27.424H18.712C20.9093 27.424 22.008 26.4107 22.008 24.384V22.976C22.008 20.9493 20.9093 19.936 18.712 19.936H15.736V27.424ZM30.8433 37.888H33.0833V19.776H30.8433V17.664H41.2753C42.8113 17.664 44.2299 17.92 45.5312 18.432C46.8539 18.9227 47.9953 19.648 48.9553 20.608C49.9153 21.5467 50.6619 22.7093 51.1953 24.096C51.7499 25.4827 52.0273 27.0613 52.0273 28.832C52.0273 30.6027 51.7499 32.1813 51.1953 33.568C50.6619 34.9547 49.9153 36.128 48.9553 37.088C47.9953 38.0267 46.8539 38.752 45.5312 39.264C44.2299 39.7547 42.8113 40 41.2753 40H30.8433V37.888ZM38.2673 37.696H40.3473C41.4139 37.696 42.3206 37.5893 43.0673 37.376C43.8353 37.1627 44.4539 36.832 44.9233 36.384C45.4139 35.9147 45.7659 35.3067 45.9792 34.56C46.2139 33.792 46.3313 32.864 46.3313 31.776V25.888C46.3313 24.8 46.2139 23.8827 45.9792 23.136C45.7659 22.368 45.4139 21.76 44.9233 21.312C44.4539 20.8427 43.8353 20.5013 43.0673 20.288C42.3206 20.0747 41.4139 19.968 40.3473 19.968H38.2673V37.696Z" fill="#222222"/>
</svg>
